<svg width="50" height="50" viewBox="0 0 50 50" fill="none" xmlns="http://www.w3.org/2000/svg">
<path d="M25.0002 14.583C25.8631 14.583 26.5627 15.2826 26.5627 16.1455V23.4372H33.8543C34.7172 23.4372 35.4168 24.1368 35.4168 24.9997C35.4168 25.8626 34.7172 26.5622 33.8543 26.5622H26.5627V33.8538C26.5627 34.7168 25.8631 35.4163 25.0002 35.4163C24.1372 35.4163 23.4377 34.7168 23.4377 33.8538V26.5622H16.146C15.2831 26.5622 14.5835 25.8626 14.5835 24.9997C14.5835 24.1368 15.2831 23.4372 16.146 23.4372H23.4377V16.1455C23.4377 15.2826 24.1372 14.583 25.0002 14.583Z" fill="black"/>
<path d="M6.25 13.0208C6.25 9.2814 9.2814 6.25 13.0208 6.25H36.9792C40.7185 6.25 43.75 9.2814 43.75 13.0208V36.9792C43.75 40.7185 40.7185 43.75 36.9792 43.75H13.0208C9.2814 43.75 6.25 40.7185 6.25 36.9792V13.0208ZM13.0208 9.375C11.0073 9.375 9.375 11.0073 9.375 13.0208V36.9792C9.375 38.9927 11.0073 40.625 13.0208 40.625H36.9792C38.9927 40.625 40.625 38.9927 40.625 36.9792V13.0208C40.625 11.0073 38.9927 9.375 36.9792 9.375H13.0208Z" fill="black"/>
</svg>
