<svg width="50" height="50" viewBox="0 0 50 50" fill="none" xmlns="http://www.w3.org/2000/svg">
<path d="M13.021 7.29199C12.1581 7.29199 11.4585 7.99155 11.4585 8.85449V41.1462C11.4585 42.0091 12.1581 42.7087 13.021 42.7087H20.8945C20.6713 43.8509 20.9116 44.9445 21.46 45.8337H13.021C10.4322 45.8337 8.3335 43.7349 8.3335 41.1462V8.85449C8.3335 6.26566 10.4322 4.16699 13.021 4.16699H25.6997C26.6666 4.16699 27.5939 4.5511 28.2777 5.23483L40.5989 17.5561C41.2827 18.2398 41.6668 19.1672 41.6668 20.1341V20.8337H41.3956C41.1652 20.8221 40.9343 20.8221 40.7039 20.8337H29.1668C26.8656 20.8337 25.0002 18.9682 25.0002 16.667V7.29199H13.021ZM28.1252 9.5017V16.667C28.1252 17.2423 28.5916 17.7087 29.1668 17.7087H36.332L28.1252 9.5017Z" fill="black"/>
<path d="M41.0695 22.917H41.0738C42.2918 22.9176 43.5095 23.3824 44.4386 24.3118C46.2982 26.1714 46.2982 29.1864 44.4386 31.046L32.142 43.3426C31.4251 44.0597 30.5268 44.5682 29.543 44.8141L25.7291 45.7676C24.0705 46.1824 22.568 44.6799 22.9828 43.0214L23.9363 39.2074C24.1822 38.2237 24.6907 37.3253 25.4078 36.6084L37.7045 24.3118C38.6336 23.3824 39.8516 22.9176 41.0695 22.917ZM42.229 26.5214C41.5897 25.8822 40.5534 25.8822 39.9141 26.5214L27.6174 38.818C27.3009 39.1345 27.0766 39.5312 26.968 39.9653L26.3622 42.3882L28.7851 41.7824C29.2193 41.6739 29.6157 41.4495 29.9322 41.133L42.229 28.8362C42.8682 28.197 42.8682 27.1605 42.229 26.5214Z" fill="black"/>
</svg>
