<svg width="50" height="50" viewBox="0 0 50 50" fill="none" xmlns="http://www.w3.org/2000/svg">
<path d="M24.75 4C28.8313 4 32.1578 6.9451 32.3103 10.6306L32.3158 10.895H41.8553C42.7636 10.895 43.5 11.5661 43.5 12.394C43.5 13.17 42.8528 13.8084 42.0234 13.8851L41.8553 13.8929H40.4197L38.1787 40.9572C37.9586 43.6155 35.5277 45.67 32.6025 45.67H16.8975C13.9723 45.67 11.5414 43.6155 11.3213 40.9572L9.07895 13.8929H7.64474C6.79315 13.8929 6.09272 13.3031 6.00849 12.5472L6 12.394C6 11.6179 6.6472 10.9795 7.47657 10.9028L7.64474 10.895H17.1842C17.1842 7.08701 20.5715 4 24.75 4ZM37.1212 13.8929H12.3788L14.6014 40.7316C14.6921 41.8262 15.693 42.6722 16.8975 42.6722H32.6025C33.807 42.6722 34.8079 41.8262 34.8986 40.7316L37.1212 13.8929ZM29.0263 20.1883C29.8779 20.1883 30.5783 20.7782 30.6626 21.534L30.6711 21.6873V34.8778C30.6711 35.7056 29.9347 36.3767 29.0263 36.3767C28.1747 36.3767 27.4743 35.7869 27.3901 35.031L27.3816 34.8778V21.6873C27.3816 20.8594 28.118 20.1883 29.0263 20.1883ZM20.4737 20.1883C21.3253 20.1883 22.0257 20.7782 22.1099 21.534L22.1184 21.6873V34.8778C22.1184 35.7056 21.382 36.3767 20.4737 36.3767C19.6221 36.3767 18.9217 35.7869 18.8374 35.031L18.8289 34.8778V21.6873C18.8289 20.8594 19.5653 20.1883 20.4737 20.1883ZM24.75 6.99784C22.4697 6.99784 20.6063 8.62442 20.4805 10.6739L20.4737 10.895H29.0263C29.0263 8.74267 27.1117 6.99784 24.75 6.99784Z" fill="black"/>
</svg>
