<svg width="53" height="53" viewBox="0 0 53 53" fill="none" xmlns="http://www.w3.org/2000/svg">
<path d="M23.6287 4.05127L46.374 8.10549C47.2845 8.26778 47.9375 8.95867 47.9375 9.75971V42.1935C47.9375 42.9945 47.2845 43.6854 46.374 43.8477L23.6287 47.9019C22.4118 48.1188 21.2707 47.3182 21.2707 46.2477V5.70549C21.2707 4.63492 22.4118 3.83436 23.6287 4.05127ZM16.5647 7.0569V10.4354H7.93722V41.5177H16.5647V44.8963H5.97642C4.96119 44.8963 4.12616 44.2315 4.02575 43.3797L4.01562 43.207V8.74615C4.01562 7.87151 4.7872 7.15212 5.77594 7.06562L5.97642 7.0569H16.5647ZM25.1923 7.78003V44.1731L44.0159 40.8179V11.1352L25.1923 7.78003ZM29.8982 23.9495C31.1977 23.9495 32.2511 24.857 32.2511 25.9766C32.2511 27.0961 31.1977 28.0037 29.8982 28.0037C28.5987 28.0037 27.5452 27.0961 27.5452 25.9766C27.5452 24.857 28.5987 23.9495 29.8982 23.9495Z" fill="#D4AF37"/>
</svg>
