<svg width="53" height="57" viewBox="0 0 53 57" fill="none" xmlns="http://www.w3.org/2000/svg">
<path d="M30.0774 4.7251C33.7709 4.7251 36.8064 7.76703 37.1535 11.6577L45.639 6.15885C46.1458 5.83042 46.7771 5.82182 47.2914 6.13634C47.8059 6.45086 48.1237 7.03988 48.1237 7.67822V32.4845C48.1237 33.1228 47.8059 33.7118 47.2914 34.0262C46.7771 34.3409 46.1458 34.3322 45.639 34.0038L37.1535 28.5051C36.8064 32.3956 33.7709 35.4376 30.0774 35.4376H26.2494V36.0282C26.2494 43.5306 20.6181 49.6126 13.6716 49.6126H7.1093C6.20324 49.6126 5.46872 48.8193 5.46872 47.8407V40.7532C5.46872 39.7747 6.20324 38.9813 7.1093 38.9813H12.783C14.6686 38.9813 16.2178 37.4254 16.39 35.4376H11.4842C7.55787 35.4376 4.375 31.9999 4.375 27.7595V12.4032C4.375 8.1627 7.55787 4.7251 11.4842 4.7251H30.0774ZM22.9682 35.4376H19.6787C19.5006 39.3844 16.4814 42.5251 12.783 42.5251H8.74987V46.0688H13.6716C18.806 46.0688 22.9682 41.5735 22.9682 36.0282V35.4376ZM30.0774 8.26885H11.4842C9.37001 8.26885 7.65615 10.1199 7.65615 12.4032V27.7595C7.65615 30.0428 9.37001 31.8938 11.4842 31.8938H30.0774C32.1915 31.8938 33.9054 30.0428 33.9054 27.7595V12.4032C33.9054 10.1199 32.1915 8.26885 30.0774 8.26885ZM44.8426 10.8077L37.1865 15.769V24.3939L44.8426 29.3551V10.8077Z" fill="#D4AF37"/>
</svg>
