<svg width="53" height="53" viewBox="0 0 53 53" fill="none" xmlns="http://www.w3.org/2000/svg">
<path d="M26.4574 4.375C38.6336 4.375 48.5046 14.1688 48.5046 26.25C48.5046 38.3311 38.6336 48.125 26.4574 48.125C22.8895 48.125 19.4415 47.2819 16.344 45.6925L7.90914 48.0272C6.44317 48.4334 4.92293 47.5836 4.51358 46.1291C4.3781 45.6479 4.37817 45.1388 4.51367 44.658L6.86756 36.2954C5.26199 33.2194 4.41016 29.7944 4.41016 26.25C4.41016 14.1688 14.281 4.375 26.4574 4.375ZM26.4574 7.65625C16.1075 7.65625 7.71724 15.981 7.71724 26.25C7.71724 29.4647 8.53909 32.5574 10.083 35.3008L10.4151 35.8907L7.96187 44.6062L16.7512 42.1732L17.3455 42.502C20.1079 44.0302 23.2213 44.8437 26.4574 44.8437C36.8072 44.8437 45.1975 36.519 45.1975 26.25C45.1975 15.981 36.8072 7.65625 26.4574 7.65625ZM26.4574 33.9062C27.675 33.9062 28.6621 34.8856 28.6621 36.0937C28.6621 37.3019 27.675 38.2812 26.4574 38.2812C25.2397 38.2812 24.2526 37.3019 24.2526 36.0937C24.2526 34.8856 25.2397 33.9062 26.4574 33.9062ZM26.4574 14.7656C29.8059 14.7656 32.5203 17.4589 32.5203 20.7812C32.5203 22.9924 31.8644 24.2244 30.203 25.9407L29.8312 26.3163C28.4601 27.6767 28.1109 28.2544 28.1109 29.5312C28.1109 30.4373 27.3706 31.1719 26.4574 31.1719C25.5442 31.1719 24.8038 30.4373 24.8038 29.5312C24.8038 27.3201 25.4597 26.0881 27.1212 24.3718L27.4929 23.9962C28.864 22.6358 29.2133 22.0581 29.2133 20.7812C29.2133 19.2711 27.9795 18.0469 26.4574 18.0469C25.0305 18.0469 23.8569 19.1228 23.7158 20.5017L23.7015 20.7812C23.7015 21.6873 22.9611 22.4219 22.0479 22.4219C21.1347 22.4219 20.3944 21.6873 20.3944 20.7812C20.3944 17.4589 23.1088 14.7656 26.4574 14.7656Z" fill="#D4AF37"/>
</svg>
