<svg width="53" height="57" viewBox="0 0 53 57" fill="none" xmlns="http://www.w3.org/2000/svg">
<path d="M9.29562 51.9749C6.57742 51.9749 4.37389 49.595 4.37389 46.6593L4.37389 33.7554C4.37389 31.7194 5.12265 29.7667 6.4555 28.3268L25.051 8.23822C27.8278 5.24519 32.3246 5.24308 35.1052 8.23491L44.8649 18.7599C47.644 21.7556 47.6476 26.6173 44.8732 29.6182L26.2807 49.7226C24.9472 51.1646 23.1376 51.9749 21.2506 51.9749H9.29562ZM9.29562 48.4312H21.2506C22.2667 48.4312 23.2411 47.9949 23.9591 47.2184L42.579 27.084C44.0451 25.466 44.0339 22.8709 42.5468 21.2679L32.7882 10.744C31.29 9.13209 28.8656 9.13322 27.3701 10.7451L8.77591 30.8323C8.05822 31.6076 7.65504 32.6591 7.65504 33.7554L7.65504 46.6593C7.65504 47.6379 8.38956 48.4312 9.29562 48.4312ZM15.3111 43.701C13.499 43.701 12.03 42.1144 12.03 40.1573C12.03 38.2002 13.499 36.6136 15.3111 36.6136C17.1232 36.6136 18.5922 38.2002 18.5922 40.1573C18.5922 42.1144 17.1232 43.701 15.3111 43.701Z" fill="#D4AF37"/>
</svg>
