<svg width="53" height="57" viewBox="0 0 53 57" fill="none" xmlns="http://www.w3.org/2000/svg">
<path d="M7.49989 32.4L28.1243 32.402C30.1001 32.402 31.7206 34.0533 31.8639 36.1496L31.8742 36.452V41.5124C31.8723 50.0174 23.8363 52.6499 17.8121 52.6499C11.9084 52.6499 4.07071 50.1217 3.75956 42.0157L3.75 41.5124V36.4499C3.75 34.316 5.2807 32.5658 7.22016 32.4111L7.49989 32.4ZM44.9988 32.4L45.2785 32.4111C47.121 32.558 48.5946 34.1449 48.7373 36.1329L48.7487 36.4499V40.5C48.7468 48.1119 42.3176 50.6249 37.499 50.6249C35.5153 50.6249 33.2635 50.1896 31.2948 49.1568C31.8911 48.3914 32.3954 47.5409 32.7892 46.5891C34.5846 47.4396 36.5221 47.5722 37.3411 47.5861L37.8821 47.58C39.8241 47.5078 45.6265 46.8011 45.9244 40.9709L45.9363 40.5V36.4499C45.9363 35.9531 45.6029 35.5395 45.1667 35.4538L44.9988 35.4374L33.6535 35.4395C33.496 34.4242 33.1031 33.5004 32.5388 32.725L32.2867 32.402L44.9988 32.4ZM7.49989 35.4374L7.31117 35.4577C7.07795 35.5089 6.91866 35.6456 6.83616 35.7331C6.75516 35.8222 6.62857 35.9929 6.58117 36.2453L6.56242 36.4499V41.5124C6.56242 44.2239 7.66301 46.2287 9.92794 47.6381C11.7961 48.8039 14.4078 49.507 17.1718 49.6015L17.8121 49.6124L18.6274 49.5918C21.4785 49.4543 28.7131 48.4647 29.0496 41.9828L29.0618 41.5104V36.452C29.0618 35.957 28.7284 35.542 28.2922 35.4559L28.1243 35.4395L7.49989 35.4374ZM17.8121 6.07495C23.5082 6.07495 28.1243 11.0625 28.1243 17.2125C28.1243 23.3624 23.5082 28.3499 17.8121 28.3499C12.116 28.3499 7.49989 23.3624 7.49989 17.2125C7.49989 11.0625 12.116 6.07495 17.8121 6.07495ZM38.4365 10.125C43.0957 10.125 46.8737 14.2053 46.8737 19.2375C46.8737 24.2696 43.0957 28.3499 38.4365 28.3499C33.7772 28.3499 29.9992 24.2696 29.9992 19.2375C29.9992 14.2053 33.7772 10.125 38.4365 10.125ZM17.8121 9.11245C13.676 9.11245 10.3123 12.7453 10.3123 17.2125C10.3123 21.6796 13.676 25.3125 17.8121 25.3125C21.9482 25.3125 25.3119 21.6796 25.3119 17.2125C25.3119 12.7453 21.9482 9.11245 17.8121 9.11245ZM38.4365 13.1625C35.3353 13.1625 32.8117 15.8881 32.8117 19.2375C32.8117 22.5868 35.3353 25.3125 38.4365 25.3125C41.5376 25.3125 44.0613 22.5868 44.0613 19.2375C44.0613 15.8881 41.5376 13.1625 38.4365 13.1625Z" fill="#D4AF37"/>
</svg>
