<svg width="53" height="57" viewBox="0 0 53 57" fill="none" xmlns="http://www.w3.org/2000/svg">
<path d="M24.6088 18.8971H41.0146L41.5387 18.9177C45.0873 19.197 47.9131 22.2895 48.1125 26.1396L48.1237 26.5753V44.294C48.1237 48.3883 45.1566 51.7341 41.418 51.96L41.0146 51.9721H24.6088C20.8179 51.9721 17.72 48.7675 17.5109 44.7297L17.4996 44.294V26.5753C17.4996 22.481 20.4668 19.1352 24.2054 18.9093L24.6088 18.8971ZM20.7808 44.294L20.7907 44.5947L20.8309 44.9646C21.1111 46.8199 22.5346 48.2604 24.2948 48.4147L24.6088 48.4284H41.0146C43.023 48.4284 44.6702 46.7578 44.8299 44.6331L44.8426 44.294V26.5753C44.8426 24.2919 43.1287 22.4409 41.0146 22.4409H24.6088C22.6003 22.4409 20.9532 24.1114 20.7935 26.2362L20.7808 26.5753V44.294ZM34.4522 11.8126C34.6285 11.8126 34.8034 11.8195 34.9764 11.8332C37.7048 12.0477 40.0063 13.9259 41.0148 16.533L37.1259 16.5319C36.5061 15.8785 35.6817 15.4503 34.7662 15.3701L34.4522 15.3563H18.0465C16.038 15.3563 14.3908 17.0269 14.2312 19.1516L14.2185 19.4907V37.2095L14.2422 37.6721C14.3393 38.6144 14.7297 39.4611 15.3125 40.1033L15.3123 44.2992C12.8608 43.1951 11.1042 40.651 10.9486 37.6452L10.9373 37.2095V19.4907C10.9373 15.3964 13.9045 12.0506 17.6431 11.8248L18.0465 11.8126H34.4522ZM27.8899 4.7251C30.7331 4.7251 33.1865 6.5277 34.3237 9.13245L34.4522 9.4501L30.5658 9.44675C29.9457 8.79198 29.1205 8.36291 28.2039 8.28255L27.8899 8.26885H11.4842C9.47572 8.26885 7.82854 9.9394 7.66884 12.0641L7.65615 12.4032V30.122C7.65615 31.2487 8.07344 32.2701 8.7502 33.0158L8.75 37.2117C6.29845 36.1076 4.54194 33.5635 4.38625 30.5577L4.375 30.122V12.4032C4.375 8.30894 7.34216 4.96313 11.0808 4.73725L11.4842 4.7251H27.8899Z" fill="#D4AF37"/>
</svg>
