<svg width="53" height="57" viewBox="0 0 53 57" fill="none" xmlns="http://www.w3.org/2000/svg">
<path d="M28.9837 7.04028C31.7018 7.04028 33.9055 9.42017 33.9055 12.3559V16.5375H41.0146C43.7327 16.5375 45.9363 18.9174 45.9363 21.8532V47.8406C45.9363 48.8192 45.2018 49.6125 44.2958 49.6125H8.20308C7.29702 49.6125 6.5625 48.8192 6.5625 47.8406V28.9406C6.5625 26.005 8.76604 23.625 11.4842 23.625H18.5934V12.3559C18.5934 9.42017 20.7969 7.04028 23.5151 7.04028H28.9837ZM41.0146 20.0813H33.9055V46.0688H42.6552V21.8532C42.6552 20.8746 41.9207 20.0813 41.0146 20.0813ZM28.9837 10.584H23.5151C22.6091 10.584 21.8746 11.3773 21.8746 12.3559V46.0688H30.6243V12.3559C30.6243 11.3773 29.8898 10.584 28.9837 10.584ZM18.5934 27.1688H11.4842C10.5782 27.1688 9.84365 27.9621 9.84365 28.9406V46.0688H18.5934V27.1688Z" fill="#D4AF37"/>
</svg>
