<svg width="53" height="57" viewBox="0 0 53 57" fill="none" xmlns="http://www.w3.org/2000/svg">
<path d="M15 20.7168C15 19.8796 15.6296 19.2009 16.4062 19.2009H35.1562C35.9329 19.2009 36.5625 19.8796 36.5625 20.7168C36.5625 21.5539 35.9329 22.2326 35.1562 22.2326H16.4062C15.6296 22.2326 15 21.5539 15 20.7168Z" fill="#D4AF37"/>
<path d="M15 29.8118C15 28.9746 15.6296 28.2959 16.4062 28.2959H35.1562C35.9329 28.2959 36.5625 28.9746 36.5625 29.8118C36.5625 30.6489 35.9329 31.3276 35.1562 31.3276H16.4062C15.6296 31.3276 15 30.6489 15 29.8118Z" fill="#D4AF37"/>
<path d="M16.4062 37.3911C15.6296 37.3911 15 38.0698 15 38.907C15 39.7441 15.6296 40.4228 16.4062 40.4228H24.8438C25.6204 40.4228 26.25 39.7441 26.25 38.907C26.25 38.0698 25.6204 37.3911 24.8438 37.3911H16.4062Z" fill="#D4AF37"/>
<path d="M26.2495 4.04224C27.0261 4.04224 27.6557 4.72092 27.6557 5.55809V8.08452H34.6867V5.55809C34.6867 4.72092 35.3163 4.04224 36.0929 4.04224C36.8695 4.04224 37.4992 4.72092 37.4992 5.55809V8.08452H38.9054C41.2352 8.08452 43.124 10.1205 43.124 12.6321V38.8987C43.124 39.3007 42.9759 39.6863 42.7121 39.9705L32.3922 51.0951C32.1284 51.3794 31.7706 51.5391 31.3977 51.5391H12.6561C10.3262 51.5391 8.4375 49.503 8.4375 46.9915V12.6321C8.4375 10.1205 10.3262 8.08452 12.6561 8.08452H14.9998V5.55809C14.9998 4.72092 15.6294 4.04224 16.406 4.04224C17.1826 4.04224 17.8122 4.72092 17.8122 5.55809V8.08452H24.8433V5.55809C24.8433 4.72092 25.4729 4.04224 26.2495 4.04224ZM11.2499 12.6321V46.9915C11.2499 47.8287 11.8795 48.5074 12.6561 48.5074H29.9915V41.9304C29.9915 39.4187 31.8803 37.3828 34.2101 37.3828H40.3116V12.6321C40.3116 11.7949 39.682 11.1162 38.9054 11.1162H12.6561C11.8795 11.1162 11.2499 11.7949 11.2499 12.6321ZM34.2101 40.4145C33.4335 40.4145 32.8039 41.0932 32.8039 41.9304V46.3638L38.3228 40.4145H34.2101Z" fill="#D4AF37"/>
</svg>
