<svg width="53" height="57" viewBox="0 0 53 57" fill="none" xmlns="http://www.w3.org/2000/svg">
<path d="M32.3429 36.4501C34.6728 36.4501 36.5615 38.49 36.5615 41.0063V44.0478L36.5468 44.2675C35.9641 48.5731 32.3833 50.6434 26.3746 50.6434C20.3875 50.6434 16.7496 48.5967 15.9643 44.3407L15.9371 44.0438V41.0063C15.9371 38.49 17.8259 36.4501 20.1558 36.4501H32.3429ZM32.3429 39.4876H20.1558C19.3791 39.4876 18.7496 40.1676 18.7496 41.0063V43.8826C19.2742 46.3134 21.6569 47.6059 26.3746 47.6059C31.0921 47.6059 33.3678 46.3274 33.7491 43.9287V41.0063C33.7491 40.1676 33.1195 39.4876 32.3429 39.4876ZM34.2058 24.2979L44.5301 24.3001C46.8599 24.3001 48.7487 26.34 48.7487 28.8563V31.8979L48.7339 32.1175C48.1513 36.423 44.5704 38.4934 38.5617 38.4934L37.9714 38.4866C37.4182 37.0416 36.4024 35.8584 35.1241 35.149C36.0894 35.3534 37.2329 35.4559 38.5617 35.4559C43.2792 35.4559 45.555 34.1774 45.9363 31.7787V28.8563C45.9363 28.0176 45.3067 27.3376 44.5301 27.3376H34.6866C34.6866 26.2717 34.5172 25.2486 34.2058 24.2979ZM7.96863 24.3001L18.2929 24.2979C18.0334 25.0901 17.8725 25.9327 17.8261 26.8084L17.8121 27.3376H7.96863C7.192 27.3376 6.56242 28.0176 6.56242 28.8563V31.7326C7.08701 34.1634 9.46976 35.4559 14.1874 35.4559C15.3538 35.4559 16.3709 35.3777 17.247 35.2238C16.0268 35.9395 15.0596 37.0929 14.5241 38.4884L14.1874 38.4934C8.20039 38.4934 4.56242 36.4467 3.77712 32.1907L3.75 31.8938V28.8563C3.75 26.34 5.63874 24.3001 7.96863 24.3001ZM26.2493 20.2501C29.8736 20.2501 32.8117 23.4233 32.8117 27.3376C32.8117 31.2519 29.8736 34.4251 26.2493 34.4251C22.6251 34.4251 19.687 31.2519 19.687 27.3376C19.687 23.4233 22.6251 20.2501 26.2493 20.2501ZM26.2493 23.2876C24.1783 23.2876 22.4995 25.1008 22.4995 27.3376C22.4995 29.5744 24.1783 31.3876 26.2493 31.3876C28.3204 31.3876 29.9992 29.5744 29.9992 27.3376C29.9992 25.1008 28.3204 23.2876 26.2493 23.2876ZM38.4365 8.1001C42.0607 8.1001 44.9988 11.2733 44.9988 15.1876C44.9988 19.1019 42.0607 22.2751 38.4365 22.2751C34.8122 22.2751 31.8742 19.1019 31.8742 15.1876C31.8742 11.2733 34.8122 8.1001 38.4365 8.1001ZM14.0622 8.1001C17.6865 8.1001 20.6245 11.2733 20.6245 15.1876C20.6245 19.1019 17.6865 22.2751 14.0622 22.2751C10.4379 22.2751 7.49989 19.1019 7.49989 15.1876C7.49989 11.2733 10.4379 8.1001 14.0622 8.1001ZM38.4365 11.1376C36.3655 11.1376 34.6866 12.9508 34.6866 15.1876C34.6866 17.4244 36.3655 19.2376 38.4365 19.2376C40.5075 19.2376 42.1864 17.4244 42.1864 15.1876C42.1864 12.9508 40.5075 11.1376 38.4365 11.1376ZM14.0622 11.1376C11.9912 11.1376 10.3123 12.9508 10.3123 15.1876C10.3123 17.4244 11.9912 19.2376 14.0622 19.2376C16.1332 19.2376 17.8121 17.4244 17.8121 15.1876C17.8121 12.9508 16.1332 11.1376 14.0622 11.1376Z" fill="#D4AF37"/>
</svg>
